<svg width="1440" height="65" viewBox="0 0 1440 65" fill="none" xmlns="http://www.w3.org/2000/svg">
<g clip-path="url(#clip0_15_208)">
<rect x="1440" y="39.5823" width="2" height="39" transform="rotate(180 1440 39.5823)" fill="#121212"/>
<path d="M1440 0.582336H-190V1.08234V1.58234H1440V0.582336Z" fill="#121212"/>
<path d="M1438.5 2.08274V39.1663C1396.17 46.9388 1365.19 48.0498 1335.19 41.9488C1305.54 35.9169 1276.8 22.8282 1238.95 2.08274H1438.5Z" fill="#121212" stroke="#121212"/>
<path d="M1107.68 37.2436L1107.65 37.2333L1107.62 37.2273C1010.71 19.2091 941.763 19.9287 860.314 37.2297C819.681 45.8609 774.35 47.4178 736.557 45.2844C717.662 44.2177 700.661 42.2292 687.081 39.7443C673.479 37.2553 663.372 34.2787 658.219 31.2645C652.887 28.145 644.011 26.0288 632.649 24.8325C621.267 23.6343 607.327 23.3533 591.816 23.9462C560.793 25.1321 523.449 29.8152 487.662 37.6737L487.639 37.6785L487.618 37.6854C445.369 51.0693 401.347 57.2215 365.734 58.7131C347.928 59.4588 332.233 59.0391 319.92 57.7782C313.763 57.1477 308.459 56.3077 304.162 55.3002C299.857 54.2907 296.599 53.1207 294.509 51.8469C290.129 49.176 280.186 45.5872 267.311 41.9952C254.413 38.3969 238.514 34.7796 222.176 32.0668C205.84 29.3544 189.053 27.544 174.385 27.565C159.74 27.586 147.118 29.4311 139.18 34.1021C131.475 38.6363 118.957 40.9438 104.429 41.8219C89.9225 42.6987 73.4949 42.1471 58.0302 41.02C42.5677 39.893 28.0798 38.1915 17.4567 36.7715C12.1454 36.0616 7.8009 35.4221 4.78479 34.9602C3.27673 34.7293 2.10071 34.5427 1.302 34.4139L0.777588 34.3289L0.5 34.2834V2.08234H1437.5V11.3837C1426.36 20.4761 1405.69 28.4166 1379.52 34.7649C1353.22 41.1422 1321.44 45.8956 1288.35 48.6139C1222.15 54.0519 1150.8 51.3369 1107.68 37.2436Z" fill="#121212" stroke="#121212"/>
</g>
<defs>
<clipPath id="clip0_15_208">
<rect width="1440" height="64" fill="white" transform="matrix(-1 0 0 -1 1440 64.5823)"/>
</clipPath>
</defs>
</svg>
