<svg width="1440" height="65" viewBox="0 0 1440 65" fill="none" xmlns="http://www.w3.org/2000/svg">
<g clip-path="url(#clip0_15_202)">
<rect y="25.5823" width="2" height="39" fill="#121212"/>
<path d="M0 64.5823H1630V64.0823V63.5823H0V64.5823Z" fill="#121212"/>
<path d="M1.5 63.0819V25.9983C43.8336 18.2258 74.8084 17.1149 104.805 23.2159C134.462 29.2478 163.202 42.3365 201.051 63.0819H1.5Z" fill="#121212" stroke="#121212"/>
<path d="M410.865 27.9175L410.898 27.9292L410.933 27.9361C500.98 45.956 565.043 45.2366 640.724 27.9333C678.468 19.3038 720.576 17.747 755.684 19.8802C773.236 20.9467 789.029 22.9349 801.642 25.4191C814.277 27.9078 823.659 30.8827 828.438 33.8917C833.402 37.0175 841.659 39.1351 852.219 40.3317C862.797 41.5305 875.753 41.8114 890.166 41.2184C918.993 40.0323 953.692 35.3486 986.945 27.4892L986.968 27.4837L986.991 27.4759C1026.24 14.0941 1067.13 7.94284 1100.21 6.45155C1116.75 5.70592 1131.33 6.12567 1142.77 7.38607C1148.48 8.01631 1153.41 8.85594 1157.4 9.86246C1161.39 10.8712 1164.41 12.0392 1166.35 13.3089C1170.42 15.984 1179.67 19.5747 1191.63 23.1667C1203.62 26.7657 1218.39 30.3836 1233.57 33.0968C1248.75 35.8097 1264.35 37.6207 1277.98 37.5997C1291.59 37.5787 1303.34 35.7333 1310.72 31.054C1317.87 26.5272 1329.49 24.2205 1342.98 23.3426C1356.46 22.4661 1371.71 23.0174 1386.08 24.1445C1400.44 25.2713 1413.9 26.9727 1423.77 28.3925C1428.71 29.1024 1432.74 29.7417 1435.54 30.2036C1436.94 30.4345 1438.04 30.621 1438.78 30.7497C1439.08 30.8014 1439.32 30.8438 1439.5 30.876V63.0823H104.5V53.7699C114.843 44.6833 134.035 36.7453 158.353 30.3976C182.779 24.0214 212.301 19.2685 243.041 16.5505C304.542 11.1128 370.816 13.8287 410.865 27.9175Z" fill="#121212" stroke="#121212"/>
</g>
<defs>
<clipPath id="clip0_15_202">
<rect width="1440" height="64" fill="white" transform="translate(0 0.582336)"/>
</clipPath>
</defs>
</svg>
