<svg width="17" height="17" viewBox="0 0 17 17" fill="none" xmlns="http://www.w3.org/2000/svg">
<path d="M8.5 0.5C12.9183 0.5 16.5 4.08172 16.5 8.5C16.5 12.9183 12.9183 16.5 8.5 16.5C4.08172 16.5 0.5 12.9183 0.5 8.5C0.5 4.08172 4.08172 0.5 8.5 0.5ZM5 8C4.72386 8 4.5 8.22386 4.5 8.5C4.5 8.77614 4.72386 9 5 9H10.7929L8.64645 11.1464C8.45118 11.3417 8.45118 11.6583 8.64645 11.8536C8.84171 12.0488 9.15829 12.0488 9.35355 11.8536L12.3536 8.85355C12.5488 8.65829 12.5488 8.34171 12.3536 8.14645L9.35355 5.14645C9.15829 4.95118 8.84171 4.95118 8.64645 5.14645C8.45118 5.34171 8.45118 5.65829 8.64645 5.85355L10.7929 8H5Z" fill="#D7A31D"/>
</svg>
