<svg width="48" height="48" viewBox="0 0 48 48" fill="none" xmlns="http://www.w3.org/2000/svg">
<path d="M33 18C33 22.9706 28.9706 27 24 27C19.0294 27 15 22.9706 15 18C15 13.0294 19.0294 9 24 9C28.9706 9 33 13.0294 33 18Z" fill="#F8F8F7"/>
<path fill-rule="evenodd" clip-rule="evenodd" d="M0 24C0 10.7452 10.7452 0 24 0C37.2548 0 48 10.7452 48 24C48 37.2548 37.2548 48 24 48C10.7452 48 0 37.2548 0 24ZM24 3C12.402 3 3 12.402 3 24C3 28.9603 4.71977 33.5189 7.59558 37.1121C9.72879 33.6757 14.4139 30 24 30C33.5861 30 38.2712 33.6757 40.4044 37.1121C43.2802 33.5189 45 28.9603 45 24C45 12.402 35.598 3 24 3Z" fill="#F8F8F7"/>
</svg>
