<svg width="125" height="125" viewBox="0 0 125 125" fill="none" xmlns="http://www.w3.org/2000/svg">
<rect x="1" y="1" width="123" height="123" stroke="#F8F8F7" stroke-width="2" stroke-dasharray="15 15"/>
<path d="M62.4998 53.3571C63.131 53.3571 63.6426 53.8688 63.6426 54.5V61.3571H70.4998C71.131 61.3571 71.6426 61.8688 71.6426 62.5C71.6426 63.1312 71.131 63.6428 70.4998 63.6428H63.6426V70.5C63.6426 71.1312 63.131 71.6428 62.4998 71.6428C61.8686 71.6428 61.3569 71.1312 61.3569 70.5V63.6428H54.4998C53.8686 63.6428 53.3569 63.1312 53.3569 62.5C53.3569 61.8688 53.8686 61.3571 54.4998 61.3571H61.3569V54.5C61.3569 53.8688 61.8686 53.3571 62.4998 53.3571Z" fill="#F8F8F7"/>
</svg>
