<svg width="38" height="38" viewBox="0 0 38 38" fill="none" xmlns="http://www.w3.org/2000/svg">
<path d="M19.0001 0.714233C20.2624 0.714233 21.2858 1.73758 21.2858 2.99995V16.7142H35.0001C36.2624 16.7142 37.2858 17.7376 37.2858 18.9999C37.2858 20.2623 36.2624 21.2857 35.0001 21.2857H21.2858V35C21.2858 36.2623 20.2624 37.2857 19.0001 37.2857C17.7377 37.2857 16.7144 36.2623 16.7144 35V21.2857H3.00007C1.7377 21.2857 0.714355 20.2623 0.714355 18.9999C0.714355 17.7376 1.7377 16.7142 3.00007 16.7142H16.7144V2.99995C16.7144 1.73758 17.7377 0.714233 19.0001 0.714233Z" fill="#F8F8F7"/>
</svg>
