<svg width="17" height="17" viewBox="0 0 17 17" fill="none" xmlns="http://www.w3.org/2000/svg">
<path d="M8.5 0.5C4.08172 0.5 0.5 4.08172 0.5 8.5C0.5 12.9183 4.08172 16.5 8.5 16.5C12.9183 16.5 16.5 12.9183 16.5 8.5C16.5 4.08172 12.9183 0.5 8.5 0.5ZM12 8C12.2761 8 12.5 8.22386 12.5 8.5C12.5 8.77614 12.2761 9 12 9H6.20711L8.35355 11.1464C8.54882 11.3417 8.54882 11.6583 8.35355 11.8536C8.15829 12.0488 7.84171 12.0488 7.64645 11.8536L4.64645 8.85355C4.45118 8.65829 4.45118 8.34171 4.64645 8.14645L7.64645 5.14645C7.84171 4.95118 8.15829 4.95118 8.35355 5.14645C8.54882 5.34171 8.54882 5.65829 8.35355 5.85355L6.20711 8H12Z" fill="#D7A31D"/>
</svg>
